<svg xmlns="http://www.w3.org/2000/svg" xmlns:xlink="http://www.w3.org/1999/xlink" style="" version="1.1" xml:space="preserve" width="512" height="512"><rect id="backgroundrect" width="100%" height="100%" x="0" y="0" fill="none" stroke="none"/><g class="currentLayer" style=""><title>Layer 1</title><g id="svg_1" class="" stroke="#000000" stroke-opacity="1" fill-opacity="1" fill="#e9a5f7"><g id="svg_2" stroke="#000000" stroke-opacity="1" fill="#e9a5f7"><path d="M407,0H105C47.103,0,0,47.103,0,105v302c0,57.897,47.103,105,105,105h302c57.897,0,105-47.103,105-105V105    C512,47.103,464.897,0,407,0z M91,292H61v-72h30V292z M151,372h-30V140h30V372z M211,452h-30V60h30V452z M271,292h-30v-72h30V292z     M331,352h-30V160h30V352z M391,302h-30v-92h30V302z M451,272h-30v-32h30V272z" id="svg_3" stroke="#000000" stroke-opacity="1" fill="#e9a5f7"/></g></g><g id="svg_4"/><g id="svg_5"/><g id="svg_6"/><g id="svg_7"/><g id="svg_8"/><g id="svg_9"/><g id="svg_10"/><g id="svg_11"/><g id="svg_12"/><g id="svg_13"/><g id="svg_14"/><g id="svg_15"/><g id="svg_16"/><g id="svg_17"/><g id="svg_18"/></g></svg>